# xmcd
#
# Track frame offsets:
#	150
#	18220
#	40265
#	58282
#	77300
#	102755
#	120675
#	137367
#	156447
#	177855
#	199490
#	215820
#	238847
#	258732
#
# Disc length: 3745 seconds
#
# Revision: 1
# Processed by: cddbd v1.5.1PL0 Copyright (c) Steve Scherf et al.
# Submitted via: CDex 1.50Beta5
#
DISCID=c70e9f0e
DTITLE=美空ひばり - 日本歌曲
DYEAR=1900
DGENRE=
TTITLE0=ひとりぼっち
TTITLE1=美空ひばり/月の夜汽車
TTITLE2=美空ひばり/
TTITLE3=美空ひばり/さくらの
TTITLE4=美空ひばり/ひとり旅 〜リンゴ追分 入り〜
TTITLE5=月下美人
TTITLE6=おまえに惚れた
TTITLE7=美空ひばり/裏町酒場
TTITLE8=まなざしの彼方
TTITLE9=しのぶ
TTITLE10=美空ひばり/函館山から
TTITLE11=美空ひばり/愛燦燦
TTITLE12=美空ひばり/みだれ
TTITLE13=川の流れのように
EXTD=
EXTT0=
EXTT1=
EXTT2=
EXTT3=
EXTT4=
EXTT5=
EXTT6=
EXTT7=
EXTT8=
EXTT9=
EXTT10=
EXTT11=
EXTT12=
EXTT13=
PLAYORDER=
